<svg width="31" height="31" viewBox="0 0 31 31" fill="none" xmlns="http://www.w3.org/2000/svg">
<g clip-path="url(#clip0_1_42)">
<path d="M15.7799 9.72539V15.0868L21.2271 21.4346" stroke="#070707" stroke-width="2.14455" stroke-linecap="round" stroke-linejoin="round"/>
<g clip-path="url(#clip1_1_42)">
<path d="M1.84009 15.0879C1.84009 17.8449 2.65763 20.54 4.18933 22.8323C5.72102 25.1247 7.89808 26.9113 10.4452 27.9664C12.9923 29.0214 15.7951 29.2975 18.4991 28.7596C21.2031 28.2218 23.6869 26.8942 25.6364 24.9447C27.5859 22.9952 28.9135 20.5114 29.4513 17.8074C29.9892 15.1034 29.7131 12.3006 28.6581 9.7535C27.603 7.20638 25.8164 5.02932 23.524 3.49762C21.2317 1.96593 18.5366 1.14839 15.7796 1.14839C11.7864 1.14397 7.94549 2.68035 5.05691 5.43748" stroke="#070707" stroke-width="2.14455" stroke-linecap="round" stroke-linejoin="round"/>
<path d="M6.12936 1.14838L5.05708 5.43747L9.34617 6.50974" stroke="#070707" stroke-width="2.14455" stroke-linecap="round" stroke-linejoin="round"/>
</g>
</g>
<defs>
<clipPath id="clip0_1_42">
<rect width="30.0236" height="30.0236" fill="white" transform="translate(0.76825 0.0755615)"/>
</clipPath>
<clipPath id="clip1_1_42">
<rect width="30.0236" height="30.0236" fill="white" transform="translate(0.768135 0.0759277)"/>
</clipPath>
</defs>
</svg>
