<svg width="31" height="31" viewBox="0 0 31 31" fill="none" xmlns="http://www.w3.org/2000/svg">
<g clip-path="url(#clip0_1_53)">
<path d="M7.99537 12.715L13.4425 4.00816C13.6536 3.66402 13.9503 3.38043 14.3035 3.185C14.6568 2.98957 15.0547 2.88897 15.4584 2.893C15.7763 2.88152 16.0934 2.9339 16.3907 3.04703C16.6881 3.16017 16.9598 3.33177 17.1897 3.55169C17.4196 3.7716 17.6031 4.03538 17.7293 4.32742C17.8555 4.61947 17.922 4.93385 17.9246 5.252V11.4926H27.3392C27.687 11.5039 28.0286 11.5887 28.3414 11.7414C28.6541 11.8941 28.931 12.1113 29.1538 12.3787C29.3767 12.6461 29.5404 12.9576 29.6342 13.2928C29.728 13.628 29.7498 13.9792 29.6982 14.3234L27.9825 25.3893C27.9094 25.9807 27.6227 26.525 27.1765 26.9199C26.7302 27.3148 26.1551 27.5331 25.5592 27.5338H11.491C10.8213 27.5365 10.1603 27.3822 9.56089 27.0835L8.01681 26.3114" stroke="#070707" stroke-width="2.14455" stroke-linecap="round" stroke-linejoin="round"/>
<path d="M7.99537 12.7148V26.2469" stroke="#070707" stroke-width="2.14455" stroke-linecap="round" stroke-linejoin="round"/>
<path d="M2.9127 12.7148H7.99528V26.2469H2.9127C2.62832 26.2469 2.35558 26.1339 2.15449 25.9328C1.9534 25.7317 1.84043 25.459 1.84043 25.1746V13.7871C1.84043 13.5027 1.9534 13.2299 2.15449 13.0288C2.35558 12.8278 2.62832 12.7148 2.9127 12.7148V12.7148Z" stroke="#070707" stroke-width="2.14455" stroke-linecap="round" stroke-linejoin="round"/>
</g>
<defs>
<clipPath id="clip0_1_53">
<rect width="30.0236" height="30.0236" fill="white" transform="translate(0.768311 0.169373)"/>
</clipPath>
</defs>
</svg>
