<svg width="31" height="31" viewBox="0 0 31 31" fill="none" xmlns="http://www.w3.org/2000/svg">
<g clip-path="url(#clip0_1_29)">
<path d="M9.34663 1.09959H27.5753C28.7597 1.09959 29.7198 2.05974 29.7198 3.24414V21.4728C29.7198 22.6572 28.7597 23.6173 27.5753 23.6173H9.34663C8.16223 23.6173 7.20209 22.6572 7.20209 21.4728V3.24414C7.20209 2.05974 8.16223 1.09959 9.34663 1.09959Z" stroke="#070707" stroke-width="2.14455" stroke-linecap="round" stroke-linejoin="round"/>
<path d="M1.84061 7.53323V26.8341C1.84061 27.4029 2.06656 27.9484 2.46874 28.3506C2.87092 28.7527 3.41639 28.9787 3.98516 28.9787H23.2861" stroke="#070707" stroke-width="2.14455" stroke-linecap="round" stroke-linejoin="round"/>
<path d="M14.9573 16.4113V8.30494C14.9557 8.16654 14.9913 8.03024 15.0604 7.91031C15.1296 7.79039 15.2297 7.69126 15.3502 7.62329C15.4708 7.55533 15.6075 7.52103 15.7459 7.524C15.8842 7.52696 16.0193 7.56707 16.1368 7.64013L23.1495 11.6933C23.2651 11.7616 23.3609 11.8588 23.4275 11.9754C23.494 12.092 23.529 12.2239 23.529 12.3581C23.529 12.4924 23.494 12.6243 23.4275 12.7409C23.3609 12.8575 23.2651 12.9547 23.1495 13.0229L16.1368 17.1834C16.0114 17.2639 15.8654 17.3065 15.7163 17.3058C15.5672 17.3052 15.4215 17.2614 15.2968 17.1797C15.1721 17.0981 15.0736 16.9821 15.0134 16.8457C14.9532 16.7094 14.9337 16.5585 14.9573 16.4113Z" stroke="#070707" stroke-width="2.14455" stroke-linecap="round" stroke-linejoin="round"/>
</g>
<defs>
<clipPath id="clip0_1_29">
<rect width="30.0236" height="30.0236" fill="white" transform="matrix(-1 0 0 1 30.792 0.0278931)"/>
</clipPath>
</defs>
</svg>
