<svg width="31" height="31" viewBox="0 0 31 31" fill="none" xmlns="http://www.w3.org/2000/svg">
<rect width="30.0236" height="30.0236" transform="matrix(-1 0 0 1 30.7919 0.403648)" fill="white"/>
<path d="M4.01855 16.2307L4.96639 15.7293H4.96639L4.01855 16.2307ZM6.33467 8.96368L5.85175 8.00631L6.33467 8.96368ZM7.38509 18.9001L7.86801 19.8574C8.26595 19.6567 8.49822 19.2307 8.45144 18.7875C8.40465 18.3443 8.08855 17.9762 7.65747 17.863L7.38509 18.9001ZM6.18322 19.5063L6.66614 20.4637H6.66615L6.18322 19.5063ZM3.86717 26.7732L2.91933 27.2746H2.91933L3.86717 26.7732ZM10.9947 29.0448L11.4777 30.0022L10.9947 29.0448ZM25.2254 21.8665L24.7425 20.9091L25.2254 21.8665ZM27.5415 14.5996L28.4893 14.0982L27.5415 14.5996ZM24.1751 11.9303L23.6922 10.9729C23.2942 11.1737 23.0619 11.5996 23.1087 12.0429C23.1555 12.4861 23.4716 12.8542 23.9027 12.9674L24.1751 11.9303ZM25.3768 11.3241L24.8939 10.3668L25.3768 11.3241ZM27.6929 4.05716L26.7451 4.55851V4.55851L27.6929 4.05716ZM20.5652 1.78541L20.0822 0.828041V0.828041L20.5652 1.78541ZM4.96639 15.7293C3.84878 13.6164 4.68343 10.9976 6.8176 9.92105L5.85175 8.00631C2.64561 9.62358 1.39171 13.5578 3.0707 16.732L4.96639 15.7293ZM7.65747 17.863C6.53924 17.5693 5.54735 16.8277 4.96639 15.7293L3.0707 16.732C3.94356 18.3822 5.43795 19.4973 7.1127 19.9372L7.65747 17.863ZM6.66615 20.4637L7.86801 19.8574L6.90216 17.9427L5.7003 18.5489L6.66615 20.4637ZM4.81501 26.2718C3.69739 24.1589 4.53202 21.5402 6.66614 20.4637L5.7003 18.5489C2.49419 20.1662 1.24032 24.1004 2.91933 27.2746L4.81501 26.2718ZM10.5118 28.0875C8.43531 29.1349 5.90245 28.3277 4.81501 26.2718L2.91933 27.2746C4.55299 30.363 8.35813 31.5758 11.4777 30.0022L10.5118 28.0875ZM24.7425 20.9091L10.5118 28.0875L11.4777 30.0022L25.7083 22.8238L24.7425 20.9091ZM26.5936 15.101C27.7113 17.2138 26.8766 19.8326 24.7425 20.9091L25.7083 22.8238C28.9145 21.2066 30.1683 17.2724 28.4893 14.0982L26.5936 15.101ZM23.9027 12.9674C25.0209 13.2611 26.0127 14.0027 26.5936 15.101L28.4893 14.0982C27.6165 12.4481 26.1221 11.3331 24.4475 10.8932L23.9027 12.9674ZM24.8939 10.3668L23.6922 10.9729L24.658 12.8877L25.8597 12.2815L24.8939 10.3668ZM26.7451 4.55851C27.8627 6.67145 27.028 9.29023 24.8939 10.3668L25.8597 12.2815C29.0658 10.6642 30.3197 6.73006 28.6408 3.55581L26.7451 4.55851ZM21.0481 2.74278C23.1247 1.6953 25.6576 2.5026 26.7451 4.55851L28.6408 3.55581C27.0071 0.46722 23.2019 -0.745579 20.0822 0.828041L21.0481 2.74278ZM6.8176 9.92105L21.0481 2.74278L20.0822 0.828041L5.85175 8.00631L6.8176 9.92105Z" fill="#070707"/>
<path d="M12.8382 18.6745V12.0651C12.8369 11.9523 12.8659 11.8412 12.9222 11.7434C12.9786 11.6456 13.0602 11.5648 13.1585 11.5094C13.2568 11.454 13.3682 11.426 13.4811 11.4284C13.5939 11.4308 13.704 11.4635 13.7999 11.5231L19.5174 14.8278C19.6117 14.8834 19.6898 14.9627 19.7441 15.0577C19.7983 15.1528 19.8269 15.2604 19.8269 15.3698C19.8269 15.4793 19.7983 15.5868 19.7441 15.6819C19.6898 15.7769 19.6117 15.8562 19.5174 15.9118L13.7999 19.3039C13.6976 19.3696 13.5785 19.4043 13.457 19.4038C13.3354 19.4032 13.2166 19.3675 13.1149 19.301C13.0133 19.2344 12.933 19.1398 12.8839 19.0287C12.8348 18.9175 12.8189 18.7945 12.8382 18.6745Z" stroke="#070707" stroke-width="2.14669" stroke-linecap="round" stroke-linejoin="round"/>
</svg>
