<svg width="31" height="31" viewBox="0 0 31 31" fill="none" xmlns="http://www.w3.org/2000/svg">
<g clip-path="url(#clip0_1_71)">
<rect width="30.0236" height="30.0236" transform="matrix(-1 0 0 1 30.0617 0.0414429)" fill="white"/>
<path d="M3.77305 11.8359H26.3351C27.801 11.8359 28.9894 12.7046 28.9894 13.7762V27.0519C28.9894 28.1235 27.801 28.9922 26.3351 28.9922H3.77305C2.30709 28.9922 1.1187 28.1235 1.1187 27.0519V13.7762C1.1187 12.7046 2.30709 11.8359 3.77305 11.8359Z" stroke="#070707" stroke-width="2.14455" stroke-linecap="round" stroke-linejoin="round"/>
<path d="M11.7971 23.9204V16.8083C11.7956 16.6869 11.8269 16.5673 11.8875 16.4621C11.9482 16.3569 12.036 16.2699 12.1418 16.2103C12.2476 16.1506 12.3675 16.1205 12.4889 16.1231C12.6103 16.1257 12.7288 16.1609 12.8319 16.225L18.9844 19.7811C19.0858 19.841 19.1699 19.9263 19.2283 20.0285C19.2867 20.1308 19.3174 20.2466 19.3174 20.3643C19.3174 20.4821 19.2867 20.5979 19.2283 20.7002C19.1699 20.8024 19.0858 20.8877 18.9844 20.9476L12.8319 24.5977C12.7219 24.6684 12.5937 24.7057 12.4629 24.7052C12.3321 24.7046 12.2043 24.6662 12.0949 24.5946C11.9855 24.5229 11.8991 24.4212 11.8463 24.3015C11.7934 24.1819 11.7763 24.0495 11.7971 23.9204Z" stroke="#070707" stroke-width="2.14455" stroke-linecap="round" stroke-linejoin="round"/>
<path d="M3.25477 6.47536H26.8448" stroke="#070707" stroke-width="2.14455" stroke-linecap="round" stroke-linejoin="round"/>
<path d="M7.54396 1.11412H22.5558" stroke="#070707" stroke-width="2.14455" stroke-linecap="round" stroke-linejoin="round"/>
</g>
<defs>
<clipPath id="clip0_1_71">
<rect width="30.0236" height="30.0236" fill="white" transform="matrix(-1 0 0 1 30.0617 0.0414429)"/>
</clipPath>
</defs>
</svg>
